<?xml version="1.0" encoding="UTF-8" standalone="no"?>
<svg
   width="256"
   height="256"
   viewBox="0 0 256 256"
   version="1.1"
   id="svg4"
   sodipodi:docname="app_icon_current.svg"
   inkscape:version="1.4 (e7c3feb1, 2024-10-09)"
   xmlns:inkscape="http://www.inkscape.org/namespaces/inkscape"
   xmlns:sodipodi="http://sodipodi.sourceforge.net/DTD/sodipodi-0.dtd"
   xmlns="http://www.w3.org/2000/svg"
   xmlns:svg="http://www.w3.org/2000/svg">
  <defs
     id="defs4" />
  <sodipodi:namedview
     id="namedview4"
     pagecolor="#ffffff"
     bordercolor="#000000"
     borderopacity="0.25"
     inkscape:showpageshadow="2"
     inkscape:pageopacity="0.0"
     inkscape:pagecheckerboard="0"
     inkscape:deskcolor="#d1d1d1"
     inkscape:zoom="1.3609012"
     inkscape:cx="72.011105"
     inkscape:cy="188.84545"
     inkscape:window-width="1400"
     inkscape:window-height="747"
     inkscape:window-x="0"
     inkscape:window-y="25"
     inkscape:window-maximized="0"
     inkscape:current-layer="svg4" />
  <!-- Background rounded square -->
  <rect
     x="21.355652"
     y="21.355652"
     width="213.2887"
     height="213.2887"
     rx="36.150627"
     ry="36.150627"
     fill="#5B7C99"
     stroke="#4a6b85"
     stroke-width="3"
     id="rect1"
     style="fill:#343434;fill-opacity:1" />
  <!-- Folder base -->
  <path
     d="m 57.392472,81.46322 v 96.28299 c 0,6.41887 4.81415,11.23302 11.233016,11.23302 H 187.37451 c 6.41886,0 11.23302,-4.81415 11.23302,-11.23302 V 97.510385 c 0,-6.418867 -4.81416,-11.233016 -11.23302,-11.233016 H 137.6283 L 121.58113,70.230205 c -1.60471,-1.604717 -4.01178,-3.209434 -6.41886,-3.209434 H 68.625488 c -6.418866,0 -11.233016,4.81415 -11.233016,11.233016 z"
     fill="#F59E52"
     stroke="#D97F3D"
     stroke-width="2.40708"
     id="path1"
     style="fill:#e87c0c;fill-opacity:1;stroke:#e87c0c;stroke-opacity:1" />
  <!-- Folder tab -->
  <path
     d="m 57.392472,80.646932 v -3.209433 c 0,-6.418866 4.81415,-11.233016 11.233016,-11.233016 h 46.536782 c 2.40708,0 4.81415,1.604717 6.41886,3.209434 l 16.04717,16.047164 h 60.97923 V 96.6941 H 57.392472 Z"
     fill="#FFB570"
     stroke="#d97f3d"
     stroke-width="2.78495"
     id="path2"
     style="fill:#f69a3c;fill-opacity:1" />
  <!-- File/document icons inside folder -->
</svg>
