<?xml version="1.0" encoding="UTF-8" standalone="no"?>
<svg
   width="256"
   height="256"
   viewBox="0 0 256 256"
   version="1.1"
   id="svg4"
   sodipodi:docname="app_icon.svg"
   inkscape:version="1.4 (e7c3feb1, 2024-10-09)"
   xmlns:inkscape="http://www.inkscape.org/namespaces/inkscape"
   xmlns:sodipodi="http://sodipodi.sourceforge.net/DTD/sodipodi-0.dtd"
   xmlns="http://www.w3.org/2000/svg"
   xmlns:svg="http://www.w3.org/2000/svg">
  <defs
     id="defs4" />
  <sodipodi:namedview
     id="namedview4"
     pagecolor="#ffffff"
     bordercolor="#000000"
     borderopacity="0.25"
     inkscape:showpageshadow="2"
     inkscape:pageopacity="0.0"
     inkscape:pagecheckerboard="0"
     inkscape:deskcolor="#d1d1d1"
     inkscape:zoom="1.0705097"
     inkscape:cx="119.56921"
     inkscape:cy="187.76103"
     inkscape:window-width="1400"
     inkscape:window-height="747"
     inkscape:window-x="0"
     inkscape:window-y="25"
     inkscape:window-maximized="0"
     inkscape:current-layer="svg4" />
  <!-- Background rounded square -->
  <rect
     x="10"
     y="10"
     width="236"
     height="236"
     rx="40"
     ry="40"
     fill="#5B7C99"
     stroke="#4A6B85"
     stroke-width="3"
     id="rect1" />
  <!-- Folder base -->
  <path
     d="M 40 70 L 40 190 C 40 198 46 204 54 204 L 202 204 C 210 204 216 198 216 190 L 216 90 C 216 82 210 76 202 76 L 140 76 L 120 56 C 118 54 115 52 112 52 L 54 52 C 46 52 40 58 40 66 Z"
     fill="#F59E52"
     stroke="#D97F3D"
     stroke-width="3"
     id="path1" />
  <!-- Folder tab -->
  <path
     d="M 40 70 L 40 66 C 40 58 46 52 54 52 L 112 52 C 115 52 118 54 120 56 L 140 76 L 216 76 L 216 90 L 40 90 Z"
     fill="#FFB570"
     stroke="#D97F3D"
     stroke-width="3"
     id="path2" />
  <!-- File/document icons inside folder -->
</svg>
